<mxfile host="app.diagrams.net" modified="2023-04-30T14:33:48.860Z" agent="Mozilla/5.0 (Windows NT 10.0; Win64; x64) AppleWebKit/537.36 (KHTML, like Gecko) Chrome/112.0.0.0 Safari/537.36" etag="5vvdHFf8Sf_U-zkNU9Ax" version="21.2.2" type="device">
  <diagram name="第 1 页" id="KwOqU90tzQBnRIFNRLeY">
    <mxGraphModel dx="1247" dy="664" grid="1" gridSize="10" guides="1" tooltips="1" connect="1" arrows="1" fold="1" page="1" pageScale="1" pageWidth="1169" pageHeight="827" math="0" shadow="0">
      <root>
        <mxCell id="0" />
        <mxCell id="1" parent="0" />
        <mxCell id="-ivq1ltutCUKHV1EiaD4-14" style="edgeStyle=orthogonalEdgeStyle;rounded=0;orthogonalLoop=1;jettySize=auto;html=1;entryX=0;entryY=0.25;entryDx=0;entryDy=0;" edge="1" parent="1" source="-ivq1ltutCUKHV1EiaD4-2" target="-ivq1ltutCUKHV1EiaD4-3">
          <mxGeometry relative="1" as="geometry">
            <Array as="points">
              <mxPoint x="420" y="255" />
              <mxPoint x="420" y="255" />
            </Array>
          </mxGeometry>
        </mxCell>
        <mxCell id="-ivq1ltutCUKHV1EiaD4-68" style="edgeStyle=orthogonalEdgeStyle;rounded=0;orthogonalLoop=1;jettySize=auto;html=1;entryX=0.989;entryY=0.622;entryDx=0;entryDy=0;entryPerimeter=0;" edge="1" parent="1" source="-ivq1ltutCUKHV1EiaD4-2" target="-ivq1ltutCUKHV1EiaD4-66">
          <mxGeometry relative="1" as="geometry">
            <mxPoint x="150" y="280" as="targetPoint" />
            <Array as="points">
              <mxPoint x="210" y="287" />
              <mxPoint x="210" y="287" />
            </Array>
          </mxGeometry>
        </mxCell>
        <mxCell id="-ivq1ltutCUKHV1EiaD4-2" value="&lt;font style=&quot;font-size: 15px;&quot;&gt;1&lt;br&gt;帳號管理&lt;/font&gt;" style="ellipse;whiteSpace=wrap;html=1;aspect=fixed;" vertex="1" parent="1">
          <mxGeometry x="300" y="235" width="80" height="80" as="geometry" />
        </mxCell>
        <mxCell id="-ivq1ltutCUKHV1EiaD4-17" style="edgeStyle=orthogonalEdgeStyle;rounded=0;orthogonalLoop=1;jettySize=auto;html=1;entryX=0.957;entryY=0.664;entryDx=0;entryDy=0;entryPerimeter=0;" edge="1" parent="1" source="-ivq1ltutCUKHV1EiaD4-3" target="-ivq1ltutCUKHV1EiaD4-2">
          <mxGeometry relative="1" as="geometry">
            <mxPoint x="400" y="275" as="targetPoint" />
            <Array as="points">
              <mxPoint x="460" y="288" />
              <mxPoint x="460" y="288" />
            </Array>
          </mxGeometry>
        </mxCell>
        <mxCell id="-ivq1ltutCUKHV1EiaD4-20" style="edgeStyle=orthogonalEdgeStyle;rounded=0;orthogonalLoop=1;jettySize=auto;html=1;entryX=0.272;entryY=0.069;entryDx=0;entryDy=0;entryPerimeter=0;" edge="1" parent="1" source="-ivq1ltutCUKHV1EiaD4-3" target="-ivq1ltutCUKHV1EiaD4-4">
          <mxGeometry relative="1" as="geometry">
            <Array as="points">
              <mxPoint x="520" y="455" />
              <mxPoint x="282" y="455" />
            </Array>
          </mxGeometry>
        </mxCell>
        <mxCell id="-ivq1ltutCUKHV1EiaD4-28" style="edgeStyle=orthogonalEdgeStyle;rounded=0;orthogonalLoop=1;jettySize=auto;html=1;entryX=0.076;entryY=0.248;entryDx=0;entryDy=0;entryPerimeter=0;" edge="1" parent="1" source="-ivq1ltutCUKHV1EiaD4-3" target="-ivq1ltutCUKHV1EiaD4-5">
          <mxGeometry relative="1" as="geometry">
            <mxPoint x="830" y="275" as="targetPoint" />
            <Array as="points">
              <mxPoint x="690" y="255" />
              <mxPoint x="690" y="255" />
            </Array>
          </mxGeometry>
        </mxCell>
        <mxCell id="-ivq1ltutCUKHV1EiaD4-42" style="edgeStyle=orthogonalEdgeStyle;rounded=0;orthogonalLoop=1;jettySize=auto;html=1;entryX=-0.021;entryY=0.631;entryDx=0;entryDy=0;entryPerimeter=0;" edge="1" parent="1" source="-ivq1ltutCUKHV1EiaD4-3" target="-ivq1ltutCUKHV1EiaD4-6">
          <mxGeometry relative="1" as="geometry">
            <mxPoint x="810" y="475" as="targetPoint" />
            <Array as="points">
              <mxPoint x="590" y="476" />
            </Array>
          </mxGeometry>
        </mxCell>
        <mxCell id="-ivq1ltutCUKHV1EiaD4-44" style="edgeStyle=orthogonalEdgeStyle;rounded=0;orthogonalLoop=1;jettySize=auto;html=1;" edge="1" parent="1" source="-ivq1ltutCUKHV1EiaD4-3" target="-ivq1ltutCUKHV1EiaD4-7">
          <mxGeometry relative="1" as="geometry">
            <Array as="points">
              <mxPoint x="550" y="455" />
              <mxPoint x="550" y="455" />
            </Array>
          </mxGeometry>
        </mxCell>
        <mxCell id="-ivq1ltutCUKHV1EiaD4-52" style="edgeStyle=orthogonalEdgeStyle;rounded=0;orthogonalLoop=1;jettySize=auto;html=1;entryX=0.958;entryY=0.215;entryDx=0;entryDy=0;entryPerimeter=0;" edge="1" parent="1" source="-ivq1ltutCUKHV1EiaD4-3" target="-ivq1ltutCUKHV1EiaD4-8">
          <mxGeometry relative="1" as="geometry">
            <mxPoint x="450" y="85" as="targetPoint" />
            <Array as="points">
              <mxPoint x="530" y="82" />
            </Array>
          </mxGeometry>
        </mxCell>
        <mxCell id="-ivq1ltutCUKHV1EiaD4-55" style="edgeStyle=orthogonalEdgeStyle;rounded=0;orthogonalLoop=1;jettySize=auto;html=1;entryX=0.01;entryY=0.557;entryDx=0;entryDy=0;entryPerimeter=0;" edge="1" parent="1" source="-ivq1ltutCUKHV1EiaD4-3" target="-ivq1ltutCUKHV1EiaD4-9">
          <mxGeometry relative="1" as="geometry">
            <mxPoint x="780" y="111" as="targetPoint" />
            <Array as="points">
              <mxPoint x="600" y="103" />
              <mxPoint x="786" y="103" />
            </Array>
          </mxGeometry>
        </mxCell>
        <mxCell id="-ivq1ltutCUKHV1EiaD4-3" value="&lt;font style=&quot;font-size: 15px;&quot;&gt;小孩&lt;/font&gt;" style="rounded=0;whiteSpace=wrap;html=1;" vertex="1" parent="1">
          <mxGeometry x="500" y="235" width="120" height="80" as="geometry" />
        </mxCell>
        <mxCell id="-ivq1ltutCUKHV1EiaD4-21" style="edgeStyle=orthogonalEdgeStyle;rounded=0;orthogonalLoop=1;jettySize=auto;html=1;entryX=0.326;entryY=1.006;entryDx=0;entryDy=0;entryPerimeter=0;" edge="1" parent="1" source="-ivq1ltutCUKHV1EiaD4-4" target="-ivq1ltutCUKHV1EiaD4-3">
          <mxGeometry relative="1" as="geometry">
            <mxPoint x="550" y="325" as="targetPoint" />
            <Array as="points">
              <mxPoint x="539" y="475" />
            </Array>
          </mxGeometry>
        </mxCell>
        <mxCell id="-ivq1ltutCUKHV1EiaD4-4" value="&lt;font style=&quot;font-size: 15px;&quot;&gt;2&lt;br&gt;記帳&lt;/font&gt;" style="ellipse;whiteSpace=wrap;html=1;aspect=fixed;" vertex="1" parent="1">
          <mxGeometry x="260" y="425" width="80" height="80" as="geometry" />
        </mxCell>
        <mxCell id="-ivq1ltutCUKHV1EiaD4-30" style="edgeStyle=orthogonalEdgeStyle;rounded=0;orthogonalLoop=1;jettySize=auto;html=1;entryX=0.995;entryY=0.605;entryDx=0;entryDy=0;entryPerimeter=0;" edge="1" parent="1" source="-ivq1ltutCUKHV1EiaD4-5" target="-ivq1ltutCUKHV1EiaD4-3">
          <mxGeometry relative="1" as="geometry">
            <Array as="points">
              <mxPoint x="710" y="283" />
              <mxPoint x="710" y="283" />
            </Array>
          </mxGeometry>
        </mxCell>
        <mxCell id="-ivq1ltutCUKHV1EiaD4-32" style="edgeStyle=orthogonalEdgeStyle;rounded=0;orthogonalLoop=1;jettySize=auto;html=1;entryX=0;entryY=0.25;entryDx=0;entryDy=0;" edge="1" parent="1" source="-ivq1ltutCUKHV1EiaD4-5" target="-ivq1ltutCUKHV1EiaD4-31">
          <mxGeometry relative="1" as="geometry">
            <Array as="points">
              <mxPoint x="890" y="255" />
              <mxPoint x="890" y="255" />
            </Array>
          </mxGeometry>
        </mxCell>
        <mxCell id="-ivq1ltutCUKHV1EiaD4-5" value="&lt;font style=&quot;font-size: 15px;&quot;&gt;3&lt;br&gt;願望清單&lt;/font&gt;" style="ellipse;whiteSpace=wrap;html=1;aspect=fixed;" vertex="1" parent="1">
          <mxGeometry x="760" y="235" width="80" height="80" as="geometry" />
        </mxCell>
        <mxCell id="-ivq1ltutCUKHV1EiaD4-43" style="edgeStyle=orthogonalEdgeStyle;rounded=0;orthogonalLoop=1;jettySize=auto;html=1;entryX=0.917;entryY=1.038;entryDx=0;entryDy=0;entryPerimeter=0;" edge="1" parent="1" source="-ivq1ltutCUKHV1EiaD4-6" target="-ivq1ltutCUKHV1EiaD4-3">
          <mxGeometry relative="1" as="geometry">
            <mxPoint x="590" y="335" as="targetPoint" />
            <Array as="points">
              <mxPoint x="610" y="455" />
            </Array>
          </mxGeometry>
        </mxCell>
        <mxCell id="-ivq1ltutCUKHV1EiaD4-86" style="edgeStyle=orthogonalEdgeStyle;rounded=0;orthogonalLoop=1;jettySize=auto;html=1;entryX=0.5;entryY=0;entryDx=0;entryDy=0;" edge="1" parent="1" source="-ivq1ltutCUKHV1EiaD4-6" target="-ivq1ltutCUKHV1EiaD4-79">
          <mxGeometry relative="1" as="geometry" />
        </mxCell>
        <mxCell id="-ivq1ltutCUKHV1EiaD4-6" value="&lt;font style=&quot;font-size: 15px;&quot;&gt;4&lt;br&gt;成就&lt;/font&gt;" style="ellipse;whiteSpace=wrap;html=1;aspect=fixed;" vertex="1" parent="1">
          <mxGeometry x="820" y="425" width="80" height="80" as="geometry" />
        </mxCell>
        <mxCell id="-ivq1ltutCUKHV1EiaD4-45" style="edgeStyle=orthogonalEdgeStyle;rounded=0;orthogonalLoop=1;jettySize=auto;html=1;entryX=0.549;entryY=1.027;entryDx=0;entryDy=0;entryPerimeter=0;" edge="1" parent="1" source="-ivq1ltutCUKHV1EiaD4-7" target="-ivq1ltutCUKHV1EiaD4-3">
          <mxGeometry relative="1" as="geometry">
            <Array as="points">
              <mxPoint x="566" y="505" />
              <mxPoint x="566" y="505" />
            </Array>
          </mxGeometry>
        </mxCell>
        <mxCell id="-ivq1ltutCUKHV1EiaD4-7" value="&lt;font style=&quot;font-size: 15px;&quot;&gt;5&lt;br&gt;更衣室&lt;br&gt;&lt;/font&gt;" style="ellipse;whiteSpace=wrap;html=1;aspect=fixed;" vertex="1" parent="1">
          <mxGeometry x="520" y="695" width="80" height="80" as="geometry" />
        </mxCell>
        <mxCell id="-ivq1ltutCUKHV1EiaD4-53" style="edgeStyle=orthogonalEdgeStyle;rounded=0;orthogonalLoop=1;jettySize=auto;html=1;entryX=0.132;entryY=-0.004;entryDx=0;entryDy=0;entryPerimeter=0;" edge="1" parent="1" source="-ivq1ltutCUKHV1EiaD4-8" target="-ivq1ltutCUKHV1EiaD4-3">
          <mxGeometry relative="1" as="geometry">
            <mxPoint x="520" y="225" as="targetPoint" />
            <Array as="points">
              <mxPoint x="516" y="95" />
            </Array>
          </mxGeometry>
        </mxCell>
        <mxCell id="-ivq1ltutCUKHV1EiaD4-8" value="&lt;font style=&quot;font-size: 15px;&quot;&gt;6&lt;br&gt;聊天機器人&lt;br&gt;&lt;/font&gt;" style="ellipse;whiteSpace=wrap;html=1;aspect=fixed;" vertex="1" parent="1">
          <mxGeometry x="260" y="65" width="80" height="80" as="geometry" />
        </mxCell>
        <mxCell id="-ivq1ltutCUKHV1EiaD4-54" style="edgeStyle=orthogonalEdgeStyle;rounded=0;orthogonalLoop=1;jettySize=auto;html=1;entryX=0.688;entryY=0.015;entryDx=0;entryDy=0;entryPerimeter=0;" edge="1" parent="1" source="-ivq1ltutCUKHV1EiaD4-9" target="-ivq1ltutCUKHV1EiaD4-3">
          <mxGeometry relative="1" as="geometry">
            <Array as="points">
              <mxPoint x="583" y="88" />
            </Array>
          </mxGeometry>
        </mxCell>
        <mxCell id="-ivq1ltutCUKHV1EiaD4-9" value="&lt;font style=&quot;font-size: 15px;&quot;&gt;7&lt;br&gt;小遊戲&lt;br&gt;&lt;/font&gt;" style="ellipse;whiteSpace=wrap;html=1;aspect=fixed;" vertex="1" parent="1">
          <mxGeometry x="800" y="58" width="80" height="80" as="geometry" />
        </mxCell>
        <mxCell id="-ivq1ltutCUKHV1EiaD4-18" value="&lt;font style=&quot;font-size: 15px;&quot;&gt;帳號資訊&lt;/font&gt;" style="text;html=1;align=center;verticalAlign=middle;resizable=0;points=[];autosize=1;strokeColor=none;fillColor=none;" vertex="1" parent="1">
          <mxGeometry x="390" y="225" width="80" height="30" as="geometry" />
        </mxCell>
        <mxCell id="-ivq1ltutCUKHV1EiaD4-19" value="&lt;font style=&quot;font-size: 15px;&quot;&gt;註冊資訊&lt;/font&gt;" style="text;html=1;align=center;verticalAlign=middle;resizable=0;points=[];autosize=1;strokeColor=none;fillColor=none;" vertex="1" parent="1">
          <mxGeometry x="390" y="285" width="80" height="30" as="geometry" />
        </mxCell>
        <mxCell id="-ivq1ltutCUKHV1EiaD4-22" value="&lt;font style=&quot;font-size: 15px;&quot;&gt;記帳資料&lt;/font&gt;" style="text;html=1;align=center;verticalAlign=middle;resizable=0;points=[];autosize=1;strokeColor=none;fillColor=none;" vertex="1" parent="1">
          <mxGeometry x="415" y="385" width="80" height="30" as="geometry" />
        </mxCell>
        <mxCell id="-ivq1ltutCUKHV1EiaD4-23" value="&lt;font style=&quot;font-size: 15px;&quot;&gt;刪改後記帳資料&lt;/font&gt;" style="text;html=1;align=center;verticalAlign=middle;resizable=0;points=[];autosize=1;strokeColor=none;fillColor=none;" vertex="1" parent="1">
          <mxGeometry x="390" y="405" width="130" height="30" as="geometry" />
        </mxCell>
        <mxCell id="-ivq1ltutCUKHV1EiaD4-25" value="&lt;font style=&quot;font-size: 15px;&quot;&gt;記帳查詢資料&lt;/font&gt;" style="text;html=1;align=center;verticalAlign=middle;resizable=0;points=[];autosize=1;strokeColor=none;fillColor=none;" vertex="1" parent="1">
          <mxGeometry x="400" y="425" width="110" height="30" as="geometry" />
        </mxCell>
        <mxCell id="-ivq1ltutCUKHV1EiaD4-26" value="&lt;font style=&quot;font-size: 15px;&quot;&gt;記帳查詢結果&lt;/font&gt;" style="text;html=1;align=center;verticalAlign=middle;resizable=0;points=[];autosize=1;strokeColor=none;fillColor=none;" vertex="1" parent="1">
          <mxGeometry x="400" y="499" width="110" height="30" as="geometry" />
        </mxCell>
        <mxCell id="-ivq1ltutCUKHV1EiaD4-27" value="&lt;font style=&quot;font-size: 15px;&quot;&gt;記帳記錄&lt;/font&gt;" style="text;html=1;align=center;verticalAlign=middle;resizable=0;points=[];autosize=1;strokeColor=none;fillColor=none;" vertex="1" parent="1">
          <mxGeometry x="415" y="479" width="80" height="30" as="geometry" />
        </mxCell>
        <mxCell id="-ivq1ltutCUKHV1EiaD4-33" style="edgeStyle=orthogonalEdgeStyle;rounded=0;orthogonalLoop=1;jettySize=auto;html=1;entryX=0.992;entryY=0.611;entryDx=0;entryDy=0;entryPerimeter=0;" edge="1" parent="1" source="-ivq1ltutCUKHV1EiaD4-31" target="-ivq1ltutCUKHV1EiaD4-5">
          <mxGeometry relative="1" as="geometry">
            <Array as="points">
              <mxPoint x="880" y="284" />
              <mxPoint x="880" y="284" />
            </Array>
          </mxGeometry>
        </mxCell>
        <mxCell id="-ivq1ltutCUKHV1EiaD4-31" value="&lt;font style=&quot;font-size: 15px;&quot;&gt;家長&lt;/font&gt;" style="rounded=0;whiteSpace=wrap;html=1;" vertex="1" parent="1">
          <mxGeometry x="960" y="235.5" width="120" height="80" as="geometry" />
        </mxCell>
        <mxCell id="-ivq1ltutCUKHV1EiaD4-34" value="&lt;font style=&quot;font-size: 15px;&quot;&gt;待審核內容&lt;/font&gt;" style="text;html=1;align=center;verticalAlign=middle;resizable=0;points=[];autosize=1;strokeColor=none;fillColor=none;" vertex="1" parent="1">
          <mxGeometry x="850" y="225" width="100" height="30" as="geometry" />
        </mxCell>
        <mxCell id="-ivq1ltutCUKHV1EiaD4-35" value="&lt;font style=&quot;font-size: 15px;&quot;&gt;審核密碼&lt;/font&gt;" style="text;html=1;align=center;verticalAlign=middle;resizable=0;points=[];autosize=1;strokeColor=none;fillColor=none;" vertex="1" parent="1">
          <mxGeometry x="860" y="285" width="80" height="30" as="geometry" />
        </mxCell>
        <mxCell id="-ivq1ltutCUKHV1EiaD4-36" value="&lt;font style=&quot;font-size: 15px;&quot;&gt;審核結果&lt;/font&gt;" style="text;html=1;align=center;verticalAlign=middle;resizable=0;points=[];autosize=1;strokeColor=none;fillColor=none;" vertex="1" parent="1">
          <mxGeometry x="860" y="305" width="80" height="30" as="geometry" />
        </mxCell>
        <mxCell id="-ivq1ltutCUKHV1EiaD4-37" value="&lt;font style=&quot;font-size: 15px;&quot;&gt;願望清單&lt;/font&gt;" style="text;html=1;align=center;verticalAlign=middle;resizable=0;points=[];autosize=1;strokeColor=none;fillColor=none;" vertex="1" parent="1">
          <mxGeometry x="645" y="285" width="80" height="30" as="geometry" />
        </mxCell>
        <mxCell id="-ivq1ltutCUKHV1EiaD4-38" value="&lt;font style=&quot;font-size: 15px;&quot;&gt;願望資料&lt;/font&gt;" style="text;html=1;align=center;verticalAlign=middle;resizable=0;points=[];autosize=1;strokeColor=none;fillColor=none;" vertex="1" parent="1">
          <mxGeometry x="645" y="225" width="80" height="30" as="geometry" />
        </mxCell>
        <mxCell id="-ivq1ltutCUKHV1EiaD4-39" value="&lt;font style=&quot;font-size: 15px;&quot;&gt;刪除後記帳資料&lt;/font&gt;" style="text;html=1;align=center;verticalAlign=middle;resizable=0;points=[];autosize=1;strokeColor=none;fillColor=none;" vertex="1" parent="1">
          <mxGeometry x="620" y="205" width="130" height="30" as="geometry" />
        </mxCell>
        <mxCell id="-ivq1ltutCUKHV1EiaD4-40" value="&lt;font style=&quot;font-size: 15px;&quot;&gt;更改後目標&lt;/font&gt;" style="text;html=1;align=center;verticalAlign=middle;resizable=0;points=[];autosize=1;strokeColor=none;fillColor=none;" vertex="1" parent="1">
          <mxGeometry x="635" y="185" width="100" height="30" as="geometry" />
        </mxCell>
        <mxCell id="-ivq1ltutCUKHV1EiaD4-41" value="&lt;font style=&quot;font-size: 15px;&quot;&gt;審核結果&lt;/font&gt;" style="text;html=1;align=center;verticalAlign=middle;resizable=0;points=[];autosize=1;strokeColor=none;fillColor=none;" vertex="1" parent="1">
          <mxGeometry x="645" y="305" width="80" height="30" as="geometry" />
        </mxCell>
        <mxCell id="-ivq1ltutCUKHV1EiaD4-46" value="&lt;font style=&quot;font-size: 15px;&quot;&gt;成就內容&lt;/font&gt;" style="text;html=1;align=center;verticalAlign=middle;resizable=0;points=[];autosize=1;strokeColor=none;fillColor=none;" vertex="1" parent="1">
          <mxGeometry x="670" y="425" width="80" height="30" as="geometry" />
        </mxCell>
        <mxCell id="-ivq1ltutCUKHV1EiaD4-47" value="&lt;span style=&quot;font-size: 15px;&quot;&gt;成就完成狀態&lt;/span&gt;" style="text;html=1;align=center;verticalAlign=middle;resizable=0;points=[];autosize=1;strokeColor=none;fillColor=none;" vertex="1" parent="1">
          <mxGeometry x="655" y="475" width="110" height="30" as="geometry" />
        </mxCell>
        <mxCell id="-ivq1ltutCUKHV1EiaD4-48" value="&lt;span style=&quot;font-size: 15px;&quot;&gt;成就領取狀態&lt;/span&gt;" style="text;html=1;align=center;verticalAlign=middle;resizable=0;points=[];autosize=1;strokeColor=none;fillColor=none;" vertex="1" parent="1">
          <mxGeometry x="655" y="495" width="110" height="30" as="geometry" />
        </mxCell>
        <mxCell id="-ivq1ltutCUKHV1EiaD4-49" value="&lt;font style=&quot;font-size: 15px;&quot;&gt;更改服裝紀錄&lt;/font&gt;" style="text;html=1;align=center;verticalAlign=middle;resizable=0;points=[];autosize=1;strokeColor=none;fillColor=none;" vertex="1" parent="1">
          <mxGeometry x="440" y="595" width="110" height="30" as="geometry" />
        </mxCell>
        <mxCell id="-ivq1ltutCUKHV1EiaD4-50" value="&lt;font style=&quot;font-size: 15px;&quot;&gt;更衣間服飾&lt;/font&gt;" style="text;html=1;align=center;verticalAlign=middle;resizable=0;points=[];autosize=1;strokeColor=none;fillColor=none;" vertex="1" parent="1">
          <mxGeometry x="560" y="585" width="100" height="30" as="geometry" />
        </mxCell>
        <mxCell id="-ivq1ltutCUKHV1EiaD4-51" value="&lt;font style=&quot;font-size: 15px;&quot;&gt;穿戴中服飾&lt;/font&gt;" style="text;html=1;align=center;verticalAlign=middle;resizable=0;points=[];autosize=1;strokeColor=none;fillColor=none;" vertex="1" parent="1">
          <mxGeometry x="560" y="605" width="100" height="30" as="geometry" />
        </mxCell>
        <mxCell id="-ivq1ltutCUKHV1EiaD4-56" value="&lt;font style=&quot;font-size: 15px;&quot;&gt;遊戲結果&lt;/font&gt;" style="text;html=1;align=center;verticalAlign=middle;resizable=0;points=[];autosize=1;strokeColor=none;fillColor=none;" vertex="1" parent="1">
          <mxGeometry x="640" y="58" width="80" height="30" as="geometry" />
        </mxCell>
        <mxCell id="-ivq1ltutCUKHV1EiaD4-58" value="&lt;span style=&quot;font-size: 15px;&quot;&gt;問題&lt;/span&gt;" style="text;html=1;align=center;verticalAlign=middle;resizable=0;points=[];autosize=1;strokeColor=none;fillColor=none;" vertex="1" parent="1">
          <mxGeometry x="390" y="55" width="50" height="30" as="geometry" />
        </mxCell>
        <mxCell id="-ivq1ltutCUKHV1EiaD4-59" value="&lt;span style=&quot;font-size: 15px;&quot;&gt;回應內容&lt;/span&gt;" style="text;html=1;align=center;verticalAlign=middle;resizable=0;points=[];autosize=1;strokeColor=none;fillColor=none;" vertex="1" parent="1">
          <mxGeometry x="380" y="93" width="80" height="30" as="geometry" />
        </mxCell>
        <mxCell id="-ivq1ltutCUKHV1EiaD4-60" value="&lt;font style=&quot;font-size: 15px;&quot;&gt;題目&lt;/font&gt;" style="text;html=1;align=center;verticalAlign=middle;resizable=0;points=[];autosize=1;strokeColor=none;fillColor=none;" vertex="1" parent="1">
          <mxGeometry x="655" y="40" width="50" height="30" as="geometry" />
        </mxCell>
        <mxCell id="-ivq1ltutCUKHV1EiaD4-61" value="&lt;font style=&quot;font-size: 15px;&quot;&gt;作答答案&lt;/font&gt;" style="text;html=1;align=center;verticalAlign=middle;resizable=0;points=[];autosize=1;strokeColor=none;fillColor=none;" vertex="1" parent="1">
          <mxGeometry x="640" y="102" width="80" height="30" as="geometry" />
        </mxCell>
        <mxCell id="-ivq1ltutCUKHV1EiaD4-69" style="edgeStyle=orthogonalEdgeStyle;rounded=0;orthogonalLoop=1;jettySize=auto;html=1;entryX=-0.001;entryY=0.263;entryDx=0;entryDy=0;entryPerimeter=0;" edge="1" parent="1" source="-ivq1ltutCUKHV1EiaD4-66" target="-ivq1ltutCUKHV1EiaD4-2">
          <mxGeometry relative="1" as="geometry">
            <Array as="points">
              <mxPoint x="170" y="256" />
              <mxPoint x="170" y="256" />
            </Array>
          </mxGeometry>
        </mxCell>
        <mxCell id="-ivq1ltutCUKHV1EiaD4-66" value="&lt;font style=&quot;font-size: 15px;&quot;&gt;使用者基本資料&lt;/font&gt;" style="shape=partialRectangle;whiteSpace=wrap;html=1;left=0;right=0;fillColor=none;" vertex="1" parent="1">
          <mxGeometry x="10" y="250" width="120" height="60" as="geometry" />
        </mxCell>
        <mxCell id="-ivq1ltutCUKHV1EiaD4-70" value="&lt;font style=&quot;font-size: 15px;&quot;&gt;帳號資訊&lt;/font&gt;" style="text;html=1;align=center;verticalAlign=middle;resizable=0;points=[];autosize=1;strokeColor=none;fillColor=none;" vertex="1" parent="1">
          <mxGeometry x="180" y="225" width="80" height="30" as="geometry" />
        </mxCell>
        <mxCell id="-ivq1ltutCUKHV1EiaD4-71" value="&lt;font style=&quot;font-size: 15px;&quot;&gt;註冊資訊&lt;/font&gt;" style="text;html=1;align=center;verticalAlign=middle;resizable=0;points=[];autosize=1;strokeColor=none;fillColor=none;" vertex="1" parent="1">
          <mxGeometry x="180" y="285.5" width="80" height="30" as="geometry" />
        </mxCell>
        <mxCell id="-ivq1ltutCUKHV1EiaD4-85" style="edgeStyle=orthogonalEdgeStyle;rounded=0;orthogonalLoop=1;jettySize=auto;html=1;entryX=1;entryY=0.5;entryDx=0;entryDy=0;" edge="1" parent="1" source="-ivq1ltutCUKHV1EiaD4-72" target="-ivq1ltutCUKHV1EiaD4-6">
          <mxGeometry relative="1" as="geometry" />
        </mxCell>
        <mxCell id="-ivq1ltutCUKHV1EiaD4-72" value="&lt;span style=&quot;font-size: 15px;&quot;&gt;成就清單&lt;/span&gt;" style="shape=partialRectangle;whiteSpace=wrap;html=1;left=0;right=0;fillColor=none;" vertex="1" parent="1">
          <mxGeometry x="1010" y="435" width="120" height="60" as="geometry" />
        </mxCell>
        <mxCell id="-ivq1ltutCUKHV1EiaD4-78" value="&lt;font style=&quot;font-size: 15px;&quot;&gt;成就內容&lt;/font&gt;" style="text;html=1;align=center;verticalAlign=middle;resizable=0;points=[];autosize=1;strokeColor=none;fillColor=none;" vertex="1" parent="1">
          <mxGeometry x="910" y="435" width="80" height="30" as="geometry" />
        </mxCell>
        <mxCell id="-ivq1ltutCUKHV1EiaD4-81" style="edgeStyle=orthogonalEdgeStyle;rounded=0;orthogonalLoop=1;jettySize=auto;html=1;entryX=1;entryY=0.5;entryDx=0;entryDy=0;" edge="1" parent="1" source="-ivq1ltutCUKHV1EiaD4-79" target="-ivq1ltutCUKHV1EiaD4-7">
          <mxGeometry relative="1" as="geometry" />
        </mxCell>
        <mxCell id="-ivq1ltutCUKHV1EiaD4-79" value="&lt;span style=&quot;font-size: 15px;&quot;&gt;使用者成就完成&lt;/span&gt;" style="shape=partialRectangle;whiteSpace=wrap;html=1;left=0;right=0;fillColor=none;" vertex="1" parent="1">
          <mxGeometry x="800" y="705" width="120" height="60" as="geometry" />
        </mxCell>
        <mxCell id="-ivq1ltutCUKHV1EiaD4-82" value="&lt;span style=&quot;font-size: 15px;&quot;&gt;已領取服裝&lt;/span&gt;" style="text;html=1;align=center;verticalAlign=middle;resizable=0;points=[];autosize=1;strokeColor=none;fillColor=none;" vertex="1" parent="1">
          <mxGeometry x="635" y="705" width="100" height="30" as="geometry" />
        </mxCell>
        <mxCell id="-ivq1ltutCUKHV1EiaD4-88" value="&lt;span style=&quot;font-size: 15px;&quot;&gt;成就領取狀態&lt;/span&gt;" style="text;html=1;align=center;verticalAlign=middle;resizable=0;points=[];autosize=1;strokeColor=none;fillColor=none;" vertex="1" parent="1">
          <mxGeometry x="860" y="585" width="110" height="30" as="geometry" />
        </mxCell>
        <mxCell id="-ivq1ltutCUKHV1EiaD4-92" style="edgeStyle=orthogonalEdgeStyle;rounded=0;orthogonalLoop=1;jettySize=auto;html=1;entryX=0;entryY=0.5;entryDx=0;entryDy=0;" edge="1" parent="1" source="-ivq1ltutCUKHV1EiaD4-89" target="-ivq1ltutCUKHV1EiaD4-7">
          <mxGeometry relative="1" as="geometry" />
        </mxCell>
        <mxCell id="-ivq1ltutCUKHV1EiaD4-89" value="&lt;span style=&quot;font-size: 15px;&quot;&gt;衣服清單&lt;/span&gt;" style="shape=partialRectangle;whiteSpace=wrap;html=1;left=0;right=0;fillColor=none;" vertex="1" parent="1">
          <mxGeometry x="240" y="705" width="120" height="60" as="geometry" />
        </mxCell>
        <mxCell id="-ivq1ltutCUKHV1EiaD4-90" value="&lt;span style=&quot;font-size: 15px;&quot;&gt;服飾&lt;/span&gt;" style="text;html=1;align=center;verticalAlign=middle;resizable=0;points=[];autosize=1;strokeColor=none;fillColor=none;" vertex="1" parent="1">
          <mxGeometry x="415" y="705" width="50" height="30" as="geometry" />
        </mxCell>
      </root>
    </mxGraphModel>
  </diagram>
</mxfile>
